# AST/ASF file generated using VICON BodyLanguage
# -----------------------------------------------
:version 1.10
:name VICON
:units
  mass 1.0
  length 0.45
  angle deg
:documentation
   .ast/.asf automatically generated from VICON data using
   VICON BodyBuilder and BodyLanguage model FoxedUp or BRILLIANT.MOD
:root
   order TX TY TZ RX RY RZ
   axis XYZ
   position 0 0 0  
   orientation 0 0 0 
:bonedata
  begin
     id 1 
     name lhipjoint
     direction 0.734343 -0.627749 0.258209 
     length 2.5437 
     axis 0 0 0  XYZ
  end
  begin
     id 2 
     name lfemur
     direction 0.34202 -0.939693 0  
     length 6.7391  
     axis 0 0 20  XYZ
    dof rx ry rz
    limits (-160.0 20.0)
           (-70.0 70.0)
           (-60.0 70.0)
  end
  begin
     id 3 
     name ltibia
     direction 0.34202 -0.939693 0   
     length 7.21536   
     axis 0 0 20   XYZ
    dof rx
    limits (-10.0 170.0)
  end
  begin
     id 4 
     name lfoot
     direction 0.0489572 -0.134509 0.989702   
     length 1.61313   
     axis -90 7.62852e-016 20   XYZ
    dof rx rz
    limits (-45.0 90.0)
           (-70.0 20.0)
  end
  begin
     id 5 
     name ltoes
     direction 1.53451e-011 -4.21692e-011 1   
     length 0.823104   
     axis -90 7.62852e-016 20   XYZ
    dof rx
    limits (-90.0 20.0)
  end
  begin
     id 6 
     name rhipjoint
     direction -0.746398 -0.615468 0.253157   
     length 2.59446  
     axis 0 0 0  XYZ 
  end
  begin
     id 7 
     name rfemur
     direction -0.34202 -0.939693 0   
     length 6.7075   
     axis 0 0 -20   XYZ
    dof rx ry rz
    limits (-160.0 20.0)
           (-70.0 70.0)
           (-70.0 60.0)
  end
  begin
     id 8 
     name rtibia
     direction -0.34202 -0.939693 0   
     length 7.27262   
     axis 0 0 -20   XYZ
    dof rx
    limits (-10.0 170.0)
 end
 begin
     id 9 
     name rfoot
     direction -0.0455203 -0.125066 0.991104   
     length 1.91095  
     axis -90 -7.62852e-016 -20   XYZ
    dof rx rz
    limits (-45.0 90.0)
           (-20.0 70.0)
  end
  begin
     id 10 
     name rtoes
     direction -1.53601e-011 -4.21913e-011 1   
     length 0.969037   
     axis -90 -7.62852e-016 -20   XYZ
    dof rx
    limits (-90.0 20.0)
  end
  begin
     id 11 
     name lowerback
     direction 0.0181546 0.999122 -0.0377542   
     length 1.99916   
     axis 0 0 0   XYZ
    dof rx ry rz
    limits (-20.0 45.0)
           (-30.0 30.0)
           (-30.0 30.0)
  end
  begin
     id 12 
     name upperback
     direction 0.0203486 0.99589 0.0882534   
     length 1.951   
     axis 0 0 0   XYZ
    dof rx ry rz
    limits (-20.0 45.0)
           (-30.0 30.0)
           (-30.0 30.0)
  end
  begin
     id 13 
     name thorax
     direction 0.0131685 0.994241 0.106355   
     length 1.97461   
     axis 0 0 0   XYZ
    dof rx ry rz
    limits (-20.0 45.0)
           (-30.0 30.0)
           (-30.0 30.0)
  end
  begin
     id 14 
     name lowerneck
     direction -0.0281395 0.999325 0.023617   
     length 1.7959   
     axis 0 0 0   XYZ
    dof rx ry rz
    limits (-20.0 45.0)
           (-30.0 30.0)
           (-30.0 30.0)
  end
  begin
     id 15 
     name upperneck
     direction 0.0288721 0.991984 -0.123019   
     length 1.79917   
     axis 0 0 0   XYZ
    dof rx ry rz
    limits (-20.0 45.0)
           (-30.0 30.0)
           (-30.0 30.0)
  end
  begin
     id 16
     name head
     direction 0.0133797 0.998944 -0.0439492  
     length 1.80902  
     axis 0 0 0   XYZ
    dof rx ry rz
    limits (-20.0 45.0)
           (-30.0 30.0)
           (-30.0 30.0)
  end
  begin
     id 17 
     name lclavicle
     direction 0.919195 0.377107 0.113449  
     length 3.17815  
     axis 0 0 0   XYZ
    dof ry rz
    limits (-20.0 10.0)
           (0.0 20.0)
  end
  begin
     id 18 
     name lhumerus
     direction 1 -4.48959e-011 2.13129e-027   
     length 4.84137   
     axis 180 -30 -90   XYZ
    dof rx ry rz
    limits (-60.0 90.0)
           (-90.0 90.0)
           (-90.0 90.0)
  end
  begin
     id 19
     name lradius
     direction 1 -4.48957e-011 -6.30627e-028   
     length 3.2452   
     axis 180 -30 -90   XYZ
    dof rx
    limits (-10.0 170.0)
  end
  begin
     id 20
     name lwrist
     direction 1 -4.4901e-011 9.13299e-027   
     length 1.6226   
     axis -6.84618e-015 90 90   XYZ
    dof ry
    limits (-180.0 0.0)
 end
  begin
     id 21 
     name lhand
     direction 1 -4.48816e-011 1.82293e-026   
     length 0.521221   
     axis -1.16502e-014 90 90   XYZ
    dof rx rz
    limits (-90.0 90.0)
           (-45.0 45.0)
  end
  begin
     id 22 
     name lfingers
     direction 1 -4.49108e-011 3.65687e-026   
     length 0.420221   
     axis -2.33008e-014 90 90   XYZ
    dof rx
    limits (0.0 90.0)
  end
  begin
     id 23
     name lthumb
     direction 0.707107 -6.34943e-011 0.707107   
     length 0.603356   
     axis -90 45 5.69224e-014   XYZ
    dof rx rz
    limits (-45.0 45.0)
           (-45.0 45.0)
  end
  begin
     id 24 
     name rclavicle
     direction -0.90847 0.38596 0.160368   
     length 3.12973  
     axis 0 0 0   XYZ 
    dof ry rz
    limits (-10.0 20.0)
           (-20.0 0.0)
  end
  begin
     id 25 
     name rhumerus
     direction -1 -4.48974e-011 4.47268e-028  
     length 4.72284   
     axis 180 30 90   XYZ
    dof rx ry rz
    limits (-90.0 60.0)
           (-90.0 90.0)
           (-90.0 90.0)
  end
  begin
     id 26 
     name rradius
     direction -1 -4.48969e-011 3.43203e-027   
     length 3.23459   
     axis 180 30 90   XYZ
    dof rx
    limits (-10.0 170.0)
  end
  begin
     id 27 
     name rwrist
     direction -1 -4.48969e-011 9.12911e-027   
     length 1.6173   
     axis -6.84618e-015 -90 -90   XYZ
    dof ry
    limits (-180.0 0.0)
  end
  begin
     id 28
     name rhand
     direction -1 -4.49194e-011 1.83006e-026   
     length 0.307416   
     axis -1.16502e-014 -90 -90   XYZ
    dof rx rz
    limits (-90.0 90.0)
           (-45.0 45.0)
  end
  begin
     id 29
     name rfingers
     direction -1 -4.48423e-011 3.63103e-026   
     length 0.247847   
     axis -2.33008e-014 -90 -90   XYZ
    dof rx
    limits (0.0 90.0)
  end
  begin
     id 30
     name rthumb
     direction -0.707107 -6.34802e-011 0.707107   
     length 0.35586   
     axis -90 -45 -5.69224e-014   XYZ
    dof rx rz
    limits (-45.0 45.0)
           (-45.0 45.0)
  end
:hierarchy
  begin
    root lhipjoint rhipjoint lowerback
    lhipjoint lfemur
    lfemur ltibia
    ltibia lfoot
    lfoot ltoes
    rhipjoint rfemur
    rfemur rtibia
    rtibia rfoot
    rfoot rtoes
    lowerback upperback
    upperback thorax
    thorax lowerneck lclavicle rclavicle
    lowerneck upperneck
    upperneck head
    lclavicle lhumerus
    lhumerus lradius
    lradius lwrist
    lwrist lhand lthumb
    lhand lfingers
    rclavicle rhumerus
    rhumerus rradius
    rradius rwrist
    rwrist rhand rthumb
    rhand rfingers
  end

#!OML:ASF H:\Terrain\Patient Classification 1\Animal1\Tuesday\Animal1.ASF
:FULLY-SPECIFIED
:DEGREES
509
root -3.78895 15.5249 -1.07497 19.2577 16.5211 -3.99148
lowerback 30.1108 -1.56671 0.694262
upperback 10.8097 -1.42768 2.29963
thorax -4.29401 -0.666671 2.60548
lowerneck -5.75821 8.78025 2.03803
upperneck -8.71114 11.3819 -9.0445
head -1.10256 5.85538 -3.08792
rclavicle 3.57812e-015 -2.22639e-014
rhumerus -3.78088 24.0898 14.1956
rradius 33.5123
rwrist -42.284
rhand -0.987425 9.2341
rfingers 7.12502
rthumb 24.6443 -19.1992
lclavicle 3.57812e-015 -2.22639e-014
lhumerus 8.63691 -60.2843 4.75384
lradius 104.072
lwrist 20.1442
lhand 23.0571 25.8728
lfingers 7.12502
lthumb 47.3716 -311.626
rfemur -51.696 -12.0025 8.15457
rtibia 58.5511
rfoot 14.9668 -35.0755
rtoes 34.9312
lfemur -60.9313 21.442 -31.2416
ltibia 53.3353
lfoot -17.4819 19.3492
ltoes 25.8301
510
root -3.61943 15.6098 -1.02804 18.8782 16.6784 -3.4377
lowerback 29.6859 -1.47197 0.567895
upperback 10.6296 -1.34332 2.41133
thorax -4.30029 -0.629026 2.76564
lowerneck -5.08413 8.74742 2.54791
upperneck -7.92287 11.3409 -9.27353
head -0.920128 5.81133 -3.25581
rclavicle 2.5842e-015 -1.92821e-014
rhumerus -2.95404 22.0181 16.9786
rradius 32.6572
rwrist -41.5789
rhand 0.133443 8.96806
rfingers 7.12502
rthumb 25.7182 -19.3143
lclavicle 2.5842e-015 -1.92821e-014
lhumerus 5.5651 -60.8378 5.20337
lradius 102.931
lwrist 21.8734
lhand 22.115 29.1725
lfingers 7.12502
lthumb 46.5 -307.944
rfemur -51.2714 -11.6203 7.61583
rtibia 58.1107
rfoot 6.20332 -36.7362
rtoes 44.4321
lfemur -59.0887 21.2772 -32.0229
ltibia 52.0917
lfoot -16.7328 19.6093
ltoes 22.8668
511
root -3.46115 15.6834 -0.9802 18.3535 16.9157 -3.03985
lowerback 29.3336 -1.4326 0.392701
upperback 10.5609 -1.32763 2.6655
thorax -4.20455 -0.629332 3.13401
lowerneck -4.71839 8.79419 2.82861
upperneck -6.89527 11.433 -9.55283
head -0.610908 5.83086 -3.37332
rclavicle 2.18663e-014 -8.34896e-015
rhumerus -1.74613 18.4986 19.3513
rradius 31.7395
rwrist -40.2073
rhand 1.27027 8.10881
rfingers 7.12502
rthumb 26.8065 -20.0114
lclavicle 2.18663e-014 -8.34896e-015
lhumerus 2.00461 -61.0408 6.00698
lradius 101.707
lwrist 23.3285
lhand 21.2089 33.4485
lfingers 7.12502
lthumb 45.6595 -303.317
rfemur -50.9157 -11.5413 7.73478
rtibia 57.7187
rfoot 8.26109 -35.3287
rtoes 40.9521
lfemur -57.1106 20.9801 -32.4323
ltibia 50.845
lfoot -16.1499 19.8089
ltoes 20.644
512
root -3.30985 15.7522 -0.93362 17.735 17.2413 -3.03924
lowerback 28.9997 -1.41173 0.588518
upperback 10.5182 -1.22816 3.04779
thorax -4.09693 -0.585707 3.40408
lowerneck -4.47108 8.76737 2.65691
upperneck -5.76573 11.4614 -9.46054
head -0.305311 5.81924 -3.28479
rclavicle -1.64991e-014 -7.70291e-015
rhumerus -0.79193 12.3406 20.528
rradius 30.6162
rwrist -36.2547
rhand 2.98378 7.61614
rfingers 7.12502
rthumb 28.4451 -20.2417
lclavicle -1.64991e-014 -7.70291e-015
lhumerus -1.86141 -60.8602 7.13962
lradius 100.595
lwrist 23.9754
lhand 20.5656 38.2856
lfingers 7.12502
lthumb 45.0616 -298.239
rfemur -50.6748 -11.4617 8.51708
rtibia 57.3513
rfoot 13.5089 -32.6594
rtoes 31.6185
lfemur -55.1963 20.5974 -32.2809
ltibia 49.6276
lfoot -15.6906 19.8128
ltoes 19.1952
513
root -3.15738 15.8263 -0.885748 17.264 17.547 -3.09065
lowerback 28.5613 -1.38829 0.946752
upperback 10.4882 -1.09181 3.40211
thorax -3.93283 -0.520904 3.53457
lowerneck -4.54025 8.707 2.32857
upperneck -4.59885 11.4572 -9.20394
head 0.041557 5.78463 -3.10186
rclavicle 1.2424e-014 2.47487e-014
rhumerus 0.385661 8.54231 22.6068
rradius 30.1729
rwrist -35.0669
rhand 3.86244 6.98655
rfingers 7.12502
rthumb 29.2844 -20.7279
lclavicle 1.2424e-014 2.47487e-014
lhumerus -5.40564 -60.15 8.20199
lradius 99.275
lwrist 23.7603
lhand 19.6076 42.1382
lfingers 7.12502
lthumb 44.1694 -294.042
rfemur -50.6123 -11.2754 9.35312
rtibia 57.003
rfoot 15.2025 -30.5309
rtoes 27.6812
lfemur -53.456 20.1364 -32.0822
ltibia 48.4411
lfoot -15.1435 19.7567
ltoes 17.5377
514
root -3.00425 15.9121 -0.836453 16.8901 17.9289 -2.92577
lowerback 28.1551 -1.44708 1.24923
upperback 10.1964 -1.0788 3.62881
thorax -4.07107 -0.510435 3.60003
lowerneck -3.66005 8.60743 2.45754
upperneck -3.60481 11.3664 -9.27128
head 0.215791 5.72397 -3.16462
rclavicle 1.33186e-014 2.51463e-014
rhumerus 1.22725 2.16187 22.8049
rradius 29.9276
rwrist -30.5677
rhand 5.26357 6.89356
rfingers 7.12502
rthumb 30.6213 -20.5794
lclavicle 1.33186e-014 2.51463e-014
lhumerus -8.33287 -59.8685 8.75091
lradius 97.3922
lwrist 22.899
lhand 18.6717 43.5535
lfingers 7.12502
lthumb 43.2957 -292.306
rfemur -50.5351 -11.2087 9.9791
rtibia 56.665
rfoot 13.6286 -29.3651
rtoes 30.4958
lfemur -51.5809 19.2819 -31.9208
ltibia 47.2489
lfoot -15.2378 19.4598
ltoes 19.4304
515
root -2.85876 16.0057 -0.786572 16.6853 18.3699 -2.79527
lowerback 27.6764 -1.47897 1.62153
upperback 9.93279 -1.02354 3.79797
thorax -4.14643 -0.478135 3.54556
lowerneck -3.10397 8.38392 2.52125
upperneck -2.57162 11.1183 -9.09844
head 0.427288 5.57817 -3.12607
rclavicle 1.59028e-015 9.14409e-015
rhumerus 2.81102 -0.133142 24.3987
rradius 29.8476
rwrist -30.6511
rhand 6.6349 6.0899
rfingers 7.12502
rthumb 31.9281 -21.1304
lclavicle 1.59028e-015 9.14409e-015
lhumerus -9.40333 -59.404 7.59917
lradius 95.1798
lwrist 22.0528
lhand 18.4983 42.8206
lfingers 7.12502
lthumb 43.1336 -292.981
rfemur -50.6329 -11.0551 10.6743
rtibia 56.2652
rfoot 12.1532 -27.9092
rtoes 31.5746
lfemur -49.9005 18.074 -31.5766
ltibia 46.1178
lfoot -14.836 19.3832
ltoes 20.6511
516
root -2.71867 16.0971 -0.732855 16.6755 18.7425 -2.57888
lowerback 27.0624 -1.42414 1.80811
upperback 9.66745 -0.914728 3.97352
thorax -4.15609 -0.4242 3.58497
lowerneck -2.37947 8.1204 2.44651
upperneck -1.81423 10.804 -8.89518
head 0.507193 5.41302 -3.07157
rclavicle 3.65764e-014 -5.18828e-014
rhumerus 3.96395 -2.881 25.4626
rradius 30.1199
rwrist -30.1179
rhand 7.43967 5.97833
rfingers 7.12502
rthumb 32.6941 -21.0859
lclavicle 3.65764e-014 -5.18828e-014
lhumerus -12.1171 -58.4899 8.42694
lradius 92.959
lwrist 19.5187
lhand 18.527 40.3615
lfingers 7.12502
lthumb 43.1605 -295.449
rfemur -50.935 -10.8441 11.361
rtibia 55.7297
rfoot 14.2714 -24.3495
rtoes 21.1374
lfemur -48.4439 16.7031 -31.2409
ltibia 45.0464
lfoot -13.9563 19.3969
ltoes 21.0739
517
root -2.57381 16.1781 -0.687926 16.9452 18.7647 -2.45688
lowerback 26.1025 -1.21944 1.96205
upperback 9.36329 -0.647685 4.13539
thorax -4.04706 -0.29621 3.57319
lowerneck -1.4501 7.84506 2.47413
upperneck -1.24489 10.462 -8.93106
head 0.511653 5.24387 -3.12828
rclavicle 1.43125e-014 -5.1684e-015
rhumerus 4.83125 -5.58034 26.2192
rradius 30.811
rwrist -29.6627
rhand 7.35724 6.20782
rfingers 7.12502
rthumb 32.6157 -20.8727
lclavicle 1.43125e-014 -5.1684e-015
lhumerus -13.638 -57.3286 8.0555
lradius 90.8476
lwrist 16.8225
lhand 19.3119 37.6387
lfingers 7.12502
lthumb 43.8935 -298.439
rfemur -51.7719 -10.502 12.1431
rtibia 55.0362
rfoot 16.5995 -19.514
rtoes 5.35093
lfemur -47.5097 15.4227 -30.9673
ltibia 44.1975
lfoot -13.7037 19.2153
ltoes 23.9506
